Coordinates
version=1
nRows=18
nColumns=19
inDegrees=yes

Units are S.I. units (second, meters, Newtons, ...)
If the header above contains a line with 'inDegrees', this indicates whether rotational values are in degrees (yes) or radians (no).

endheader
time	pelvis_tilt	pelvis_list	pelvis_rotation	pelvis_tx	pelvis_ty	pelvis_tz	hip_flexion_r	hip_adduction_r	hip_rotation_r	knee_angle_r	knee_angle_r_beta	ankle_angle_r	hip_flexion_l	hip_adduction_l	hip_rotation_l	knee_angle_l	knee_angle_l_beta	ankle_angle_l
     15.01333333	    -10.00853180	     -8.61933495	     -2.59047494	      2.27982736	      0.94015180	      1.05000467	     29.81273182	     12.45814048	     -1.00474368	      3.60273007	      0.06287950	      3.57390479	    -15.63435370	    -15.19221398	    -22.56283682	     68.52904666	      1.19605750	    -15.74833267
     15.02000000	    -10.27979856	     -9.17668235	     -3.63430652	      2.27878879	      0.93572206	      1.05176877	     30.97118047	     13.37476667	     -2.79654062	      8.07128027	      0.14087042	      3.66238780	    -14.13020599	    -16.19878837	    -23.00592095	     72.73482874	      1.26946224	    -15.05342107
     15.02666667	    -10.49438588	     -9.54203052	     -4.74340989	      2.27745052	      0.93094438	      1.05330135	     32.24343923	     13.96740354	     -4.41343824	     13.16853749	      0.22983434	      4.05547761	    -12.56407988	    -16.93201284	    -23.28089703	     76.83514497	      1.34102626	    -14.25727497
     15.03333333	    -10.65429904	     -9.72359316	     -5.80503857	      2.27590737	      0.92595053	      1.05449322	     33.42000565	     14.26351257	     -5.54268807	     18.39836676	      0.32111208	      4.83294469	    -10.86345042	    -17.40285070	    -23.27809783	     80.80501870	      1.41031363	    -13.41550779
     15.04000000	    -10.71859157	     -9.82842813	     -6.72035794	      2.27428185	      0.92103534	      1.05528355	     34.30178892	     14.40364730	     -6.16791725	     23.40043326	      0.40841461	      5.95046975	     -9.04442238	    -17.75797162	    -22.97835550	     84.62796388	      1.47703661	    -12.64109677
     15.04666667	    -10.65424628	     -9.90234546	     -7.53272962	      2.27250261	      0.91642728	      1.05581765	     34.77978954	     14.52304674	     -6.22871531	     27.98287886	      0.48839337	      7.41474413	     -7.14762401	    -18.01018526	    -22.42480768	     88.27812385	      1.54074392	    -11.80584339
     15.05333333	    -10.54124934	    -10.00744325	     -8.21466239	      2.27059507	      0.91227220	      1.05612722	     34.88736643	     14.69249833	     -5.92686812	     32.03168475	      0.55905836	      9.27709549	     -5.07443533	    -18.26403531	    -21.61830324	     91.74686873	      1.60128494	    -11.05308888
     15.06000000	    -10.38339065	    -10.16389212	     -8.73276097	      2.26859599	      0.90873784	      1.05627172	     34.58778458	     14.90671518	     -5.43068895	     35.45478507	      0.61880274	     11.44535365	     -2.81106812	    -18.55813768	    -20.54165239	     95.00421954	      1.65813643	    -10.34162873
     15.06666667	     -9.90506652	    -10.50552660	     -9.09769125	      2.26662453	      0.90627486	      1.05618267	     33.48757997	     15.26589028	     -4.80732987	     38.11363063	      0.66520834	     13.85032280	     -0.74711834	    -18.96953437	    -19.29610686	     97.94863182	      1.70952612	     -9.67107247
     15.07333333	     -9.44243775	    -10.84691749	     -9.34755302	      2.26466428	      0.90451658	      1.05599162	     32.00572869	     15.60562732	     -4.10252375	     40.11076642	      0.70006494	     16.46536416	      1.51969219	    -19.34832660	    -17.85592161	    100.59524220	      1.75571819	     -8.90981327
     15.08000000	     -9.83789707	    -10.80684117	     -9.36826836	      2.26252176	      0.90259082	      1.05562907	     31.19038548	     15.52823144	     -3.52748637	     41.56579929	      0.72546005	     18.91138052	      5.20328986	    -19.28152961	    -15.78321902	    103.07780913	      1.79904716	     -8.19176352
     15.08666667	     -9.42714012	    -11.04848836	     -9.31785678	      2.26084515	      0.90235264	      1.05528849	     28.94874647	     15.68633997	     -2.76775154	     42.14151437	      0.73550818	     21.41365081	      7.87884074	    -19.39570721	    -13.91104193	    105.01082472	      1.83278464	     -7.38595134
     15.09333333	     -9.43924423	    -11.15453304	     -8.94470655	      2.25935882	      0.90240510	      1.05470116	     26.83449531	     15.58885571	     -2.28512533	     42.04178773	      0.73376762	     23.51906878	     11.30297284	    -19.23680956	    -11.55205704	    106.63516933	      1.86113480	     -6.48881495
     15.10000000	     -9.23818616	    -10.97523527	     -8.88493815	      2.25822871	      0.90346971	      1.05467419	     24.09256178	     15.45164394	     -0.99935514	     41.33144243	      0.72136976	     25.17281127	     14.24087329	    -18.72957802	     -9.76523280	    107.66983817	      1.87919318	     -5.42364230
     15.10666667	     -9.27423722	    -11.05511453	     -8.04223417	      2.25755758	      0.90454939	      1.05415106	     21.36033177	     15.20587914	     -0.83109379	     39.96688731	      0.69755378	     26.94062696	     17.75951824	    -18.32819535	     -7.10984293	    108.49045059	      1.89351557	     -4.35256932
     15.11333333	     -9.47173122	    -10.77495258	     -7.34946430	      2.25725770	      0.90618195	      1.05394842	     18.54029730	     14.75969752	     -0.23947615	     38.08308055	      0.66467514	     27.63936889	     21.26442728	    -17.43185817	     -4.82365961	    108.79035639	      1.89874991	     -3.16735588
     15.12000000	     -9.72540504	    -10.32018237	     -6.64485925	      2.25732260	      0.90814754	      1.05402171	     15.60109854	     14.19258077	      0.43895036	     35.80043224	      0.62483542	     27.86864280	     24.64587642	    -16.31193871	     -2.79864807	    108.64767216	      1.89625960	     -1.92685801
     15.12666667	    -10.07729694	     -9.67973602	     -5.91446086	      2.25771973	      0.91038607	      1.05426064	     12.64867965	     13.47156989	      1.13625084	     33.19221321	      0.57931341	     27.47371889	     27.94056352	    -14.96629261	     -1.05243711	    108.08151146	      1.88637824	     -0.68776288
